<?xml version="1.0" encoding="UTF-8"?>
<svg id="Layer_2" data-name="Layer 2" xmlns="http://www.w3.org/2000/svg" viewBox="0 0 133 84.22">
  <defs>
    <style>
      .cls-1, .cls-2 {
        fill: #f7eee0;
      }

      .cls-3 {
        fill: #11314e;
      }

      .cls-4 {
        fill: none;
      }

      .cls-5 {
        fill: #133150;
      }

      .cls-2, .cls-6 {
        stroke: #0c2a49;
        stroke-miterlimit: 10;
        stroke-width: .5px;
      }

      .cls-7 {
        fill: #b83729;
      }

      .cls-8 {
        fill: #bb382d;
      }

      .cls-6 {
        fill: #f6eede;
      }

      .cls-9 {
        fill: #b53529;
      }

      .cls-10 {
        fill: #0c2a49;
      }

      .cls-11 {
        fill: #0e2c4b;
      }

      .cls-12 {
        fill: #b73328;
      }

      .cls-13 {
        fill: #133350;
      }
    </style>
  </defs>
  <g>
    <rect class="cls-4" x="45.82" width="41.36" height="15.06"/>
    <path class="cls-3" d="M55.59,5.05h-2.35v-1.66h6.73v1.66h-2.39v7.1h-1.99v-7.1Z"/>
    <path class="cls-3" d="M64.96,3.38v3.37h3.26v-3.37h1.98v8.76h-1.98v-3.67h-3.26v3.67h-1.99V3.38h1.99Z"/>
    <path class="cls-3" d="M79.09,8.44h-3.22v2.08h3.6v1.62h-5.59V3.38h5.41v1.62h-3.42v1.82h3.22v1.61Z"/>
  </g>
  <g>
    <path class="cls-8" d="M13.98,23.08c1.15-.47,2.8-1.01,5.19-1.53,2.41-.52,4.22-.42,5.53.2,1.25.59,2.23,1.78,2.51,3.34.28,1.56-.02,2.98-.84,4.06-1.06,1.4-2.84,2.29-5.04,2.76-.49.11-.93.18-1.29.21.5,2.26.75,3.39,1.25,5.65-1.44.32-2.15.48-3.58.83-1.49-6.21-2.24-9.31-3.73-15.52ZM19.42,29.36c.34,0,.74-.06,1.28-.18,2-.43,3.05-1.64,2.73-3.26-.29-1.46-1.56-2.12-3.48-1.7-.78.17-1.3.36-1.56.49.41,1.87.62,2.8,1.03,4.66Z"/>
    <path class="cls-8" d="M41.56,27.4c-2.46.29-3.7.46-6.15.82.22,1.52.34,2.28.56,3.8,2.7-.4,4.05-.57,6.75-.89.14,1.19.21,1.79.34,2.98-4.14.48-6.21.77-10.33,1.45-1.05-6.38-1.58-9.58-2.64-15.96,4.29-.71,6.44-1.01,10.75-1.52.14,1.19.21,1.79.35,2.98-2.69.31-4.03.49-6.71.89.2,1.33.29,1.99.49,3.32,2.49-.37,3.74-.53,6.24-.83.14,1.18.21,1.77.35,2.96Z"/>
    <path class="cls-8" d="M45.23,17.83c1.25-.31,3.13-.63,5.24-.79,2.6-.19,4.45.07,5.73.92,1.07.71,1.69,1.82,1.75,3.31.09,2.06-1.39,3.54-2.81,4.13,0,.03,0,.04,0,.07,1.2.39,1.9,1.44,2.39,2.91.6,1.8,1.2,3.89,1.54,4.5-1.51.06-2.26.1-3.77.18-.29-.44-.79-1.75-1.37-3.69-.59-1.95-1.33-2.49-2.87-2.4-.46.03-.69.05-1.14.09.2,2.54.31,3.8.51,6.34-1.46.12-2.19.18-3.64.32-.62-6.35-.93-9.53-1.55-15.89ZM49.7,24.42c.6-.05.91-.07,1.51-.12,1.91-.14,2.99-1.11,2.91-2.53-.09-1.49-1.22-2.18-3.01-2.06-.94.06-1.48.18-1.76.25.14,1.78.21,2.67.36,4.45Z"/>
    <path class="cls-8" d="M61.92,16.6c4.29-.1,6.44-.11,10.72-.01-.03,1.2-.04,1.8-.07,3-2.66-.06-3.99-.07-6.65-.05.01,1.48.02,2.22.03,3.7,2.45-.02,3.67,0,6.12.04-.02,1.19-.04,1.79-.06,2.98-2.41-.05-3.62-.06-6.03-.04.02,2.6.03,3.9.05,6.5-1.48.01-2.22.02-3.7.06-.16-6.47-.24-9.7-.39-16.17Z"/>
    <path class="cls-8" d="M86.55,26.69c-2.47-.21-3.71-.3-6.18-.45-.09,1.53-.13,2.3-.22,3.83,2.72.16,4.07.26,6.78.5-.11,1.2-.16,1.79-.27,2.99-4.15-.37-6.23-.51-10.39-.68.27-6.47.4-9.7.66-16.16,4.33.18,6.49.32,10.81.7-.11,1.2-.16,1.79-.26,2.99-2.69-.24-4.04-.34-6.74-.5-.08,1.34-.12,2.01-.2,3.35,2.51.15,3.76.24,6.26.46-.1,1.19-.15,1.78-.26,2.96Z"/>
    <path class="cls-8" d="M102.33,35.11c-.73.22-2.29.33-4.26.04-5.59-.81-8.12-4.52-7.64-9.1.57-5.49,5.15-8.12,10.43-7.35,2.04.3,3.53.93,4.17,1.38-.51,1.09-.76,1.64-1.26,2.74-.74-.44-1.79-.89-3.17-1.1-3.09-.46-5.71,1-6.14,4.57-.39,3.22,1.31,5.46,4.62,5.95,1.12.17,2.39.12,3.17-.04.04,1.16.06,1.75.09,2.91Z"/>
    <path class="cls-8" d="M111.85,23.99c-1.83-.37-2.75-.54-4.59-.87.22-1.21.32-1.81.54-3.02,5.33.95,7.99,1.51,13.27,2.77-.29,1.19-.43,1.79-.72,2.99-1.85-.44-2.78-.66-4.64-1.06-1.12,5.12-1.67,7.68-2.79,12.8-1.46-.32-2.18-.47-3.64-.76,1.03-5.14,1.54-7.71,2.57-12.85Z"/>
  </g>
  <g>
    <path class="cls-10" d="M54.9,64.95c-.92.46-3,.96-5.71.96-7.69,0-11.65-4.79-11.65-11.12,0-7.59,5.41-11.82,12.15-11.82,2.61,0,4.59.53,5.48.99l-1.02,3.99c-1.02-.43-2.44-.83-4.22-.83-3.99,0-7.1,2.41-7.1,7.36,0,4.46,2.64,7.26,7.13,7.26,1.52,0,3.2-.33,4.19-.73l.76,3.93Z"/>
    <path class="cls-10" d="M63.22,43.33v12.81c0,3.83,1.45,5.78,4.03,5.78s4.09-1.85,4.09-5.78v-12.81h5.02v12.48c0,6.87-3.47,10.13-9.27,10.13s-8.91-3.1-8.91-10.2v-12.41h5.05Z"/>
    <path class="cls-10" d="M85,47.56h-5.97v-4.22h17.1v4.22h-6.07v18.02h-5.05v-18.02Z"/>
  </g>
  <g>
    <path class="cls-7" d="M27.95,73.24c.48-.1,1.45-.17,2.36-.17,1.12,0,1.8.11,2.39.46.56.3.97.85.97,1.58s-.42,1.39-1.33,1.73v.02c.92.25,1.61.95,1.61,1.99,0,.73-.34,1.31-.84,1.71-.59.47-1.57.73-3.18.73-.9,0-1.57-.06-1.98-.12v-7.94ZM29.76,76.34h.6c.96,0,1.48-.4,1.48-1s-.47-.94-1.29-.94c-.4,0-.62.02-.78.05v1.88ZM29.76,79.92c.18.02.4.02.71.02.83,0,1.56-.31,1.56-1.16s-.73-1.14-1.64-1.14h-.62v2.28Z"/>
    <path class="cls-7" d="M37.63,79.14l-.58,2.08h-1.89l2.47-8.08h2.4l2.51,8.08h-1.97l-.62-2.08h-2.31ZM39.68,77.77l-.5-1.71c-.14-.48-.29-1.08-.41-1.56h-.02c-.12.48-.24,1.09-.37,1.56l-.48,1.71h1.79Z"/>
    <path class="cls-7" d="M44.22,73.24c.59-.1,1.46-.17,2.43-.17,1.2,0,2.04.18,2.61.64.48.38.74.95.74,1.69,0,1.03-.73,1.74-1.43,1.99v.04c.56.23.88.77,1.08,1.51.25.91.5,1.97.66,2.28h-1.87c-.13-.23-.32-.89-.56-1.88-.22-1.01-.56-1.28-1.31-1.3h-.55v3.18h-1.81v-7.98ZM46.03,76.72h.72c.91,0,1.45-.46,1.45-1.16,0-.74-.5-1.12-1.34-1.13-.44,0-.7.04-.83.06v2.23Z"/>
    <path class="cls-7" d="M51.94,73.24c.48-.1,1.45-.17,2.36-.17,1.12,0,1.8.11,2.39.46.56.3.97.85.97,1.58s-.42,1.39-1.33,1.73v.02c.92.25,1.61.95,1.61,1.99,0,.73-.34,1.31-.84,1.71-.59.47-1.57.73-3.18.73-.9,0-1.57-.06-1.98-.12v-7.94ZM53.75,76.34h.6c.96,0,1.48-.4,1.48-1s-.47-.94-1.29-.94c-.4,0-.62.02-.78.05v1.88ZM53.75,79.92c.18.02.4.02.71.02.83,0,1.56-.31,1.56-1.16s-.73-1.14-1.64-1.14h-.62v2.28Z"/>
    <path class="cls-7" d="M64.6,77.8h-2.97v1.92h3.32v1.5h-5.16v-8.08h4.99v1.5h-3.15v1.68h2.97v1.49Z"/>
    <path class="cls-7" d="M66.79,73.24c.59-.1,1.46-.17,2.44-.17,1.2,0,2.04.18,2.61.64.48.38.74.95.74,1.69,0,1.03-.73,1.74-1.43,1.99v.04c.56.23.88.77,1.08,1.51.25.91.5,1.97.66,2.28h-1.87c-.13-.23-.32-.89-.56-1.88-.22-1.01-.56-1.28-1.31-1.3h-.55v3.18h-1.81v-7.98ZM68.61,76.72h.72c.91,0,1.45-.46,1.45-1.16,0-.74-.5-1.12-1.34-1.13-.44,0-.7.04-.83.06v2.23Z"/>
    <path class="cls-7" d="M74.57,79.33c.49.25,1.25.5,2.03.5.84,0,1.28-.35,1.28-.88s-.38-.79-1.36-1.14c-1.34-.47-2.22-1.21-2.22-2.39,0-1.38,1.15-2.43,3.06-2.43.91,0,1.58.19,2.06.41l-.41,1.48c-.32-.16-.9-.38-1.69-.38s-1.18.36-1.18.78c0,.52.46.74,1.5,1.14,1.43.53,2.1,1.27,2.1,2.41,0,1.36-1.04,2.51-3.26,2.51-.92,0-1.83-.24-2.29-.49l.37-1.51Z"/>
    <path class="cls-7" d="M83.43,73.13v3.11h3.01v-3.11h1.82v8.08h-1.82v-3.38h-3.01v3.38h-1.83v-8.08h1.83Z"/>
    <path class="cls-7" d="M97.86,77.09c0,2.65-1.61,4.26-3.97,4.26s-3.8-1.81-3.8-4.11c0-2.42,1.55-4.23,3.93-4.23s3.84,1.86,3.84,4.09ZM92.02,77.2c0,1.58.74,2.7,1.97,2.7s1.94-1.17,1.94-2.75c0-1.45-.7-2.7-1.96-2.7s-1.96,1.18-1.96,2.75Z"/>
    <path class="cls-7" d="M99.66,73.24c.56-.1,1.35-.17,2.47-.17s1.93.22,2.47.65c.52.41.86,1.08.86,1.87s-.26,1.46-.74,1.92c-.62.59-1.55.85-2.63.85-.24,0-.46-.01-.62-.04v2.89h-1.81v-7.98ZM101.47,76.91c.16.04.35.05.61.05.97,0,1.57-.49,1.57-1.32,0-.74-.52-1.19-1.43-1.19-.37,0-.62.04-.76.07v2.39Z"/>
  </g>
  <g>
    <ellipse class="cls-13" cx="107.98" cy="63.59" rx="3.4" ry="4.11"/>
    <ellipse class="cls-5" cx="107.98" cy="44.52" rx="3.4" ry="4.11"/>
    <rect class="cls-2" x="105.04" y="45.64" width="5.88" height="17.95"/>
    <line class="cls-9" x1="110.81" y1="52.58" x2="111.14" y2="53.11"/>
    <path class="cls-12" d="M105.2,50.88c1.25-1.12,2.5-2.24,3.76-3.37h1.81v1.68l-5.57,5.05v-3.37"/>
    <path class="cls-1" d="M105.2,45.27c-.64-.83-.02-3.48,1.24-3.74.72-.15,1.69.48,1.86,1.5.18,1.1-.71,1.94-1.24,2.24-.53.31-1.45.53-1.86,0Z"/>
    <rect class="cls-6" x="103.96" y="45.64" width="8.04" height="2.24" rx="1.12" ry="1.12"/>
    <rect class="cls-6" x="103.96" y="61.35" width="8.04" height="2.24" rx="1.12" ry="1.12"/>
    <polygon class="cls-11" points="105.2 57.22 105.2 60.58 110.76 55.53 110.76 52.27 105.2 57.22"/>
    <polygon class="cls-12" points="110.76 58.76 108.13 61.15 110.76 61.15 110.76 58.76"/>
  </g>
  <g>
    <ellipse class="cls-13" cx="25.02" cy="63.6" rx="3.4" ry="4.11"/>
    <ellipse class="cls-5" cx="25.02" cy="44.53" rx="3.4" ry="4.11"/>
    <rect class="cls-2" x="22.08" y="45.65" width="5.88" height="17.95"/>
    <line class="cls-9" x1="27.86" y1="52.59" x2="28.19" y2="53.12"/>
    <path class="cls-12" d="M22.24,50.89c1.25-1.12,2.5-2.24,3.76-3.37h1.81v1.68l-5.57,5.05v-3.37"/>
    <path class="cls-1" d="M22.24,45.28c-.64-.83-.02-3.48,1.24-3.74.72-.15,1.69.48,1.86,1.5.18,1.1-.71,1.94-1.24,2.24-.53.31-1.45.53-1.86,0Z"/>
    <rect class="cls-6" x="21" y="45.65" width="8.04" height="2.24" rx="1.12" ry="1.12"/>
    <rect class="cls-6" x="21" y="61.36" width="8.04" height="2.24" rx="1.12" ry="1.12"/>
    <polygon class="cls-11" points="22.24 57.22 22.24 60.59 27.8 55.54 27.8 52.28 22.24 57.22"/>
    <polygon class="cls-12" points="27.8 58.77 25.18 61.16 27.8 61.16 27.8 58.77"/>
  </g>
</svg>